<svg xmlns="http://www.w3.org/2000/svg" width="61" height="61" viewBox="0 0 61 61"><defs><style>.a{fill:#ff3700;}.b{fill:#fff;}</style></defs><path class="a" d="M-61.31,1717.257l-5.727-9.123A30.316,30.316,0,0,0-61.47,1690.5,30.4,30.4,0,0,0-91.7,1660a30.4,30.4,0,0,0-30.234,30.5A30.4,30.4,0,0,0-91.7,1721h28.35a2.414,2.414,0,0,0,2.116-1.262,2.461,2.461,0,0,0-.073-2.481Z" transform="translate(121.937 -1660)"/><g transform="translate(27.551 16.173)"><g transform="translate(0 22.447)"><circle class="b" cx="3.245" cy="3.245" r="3.245" transform="translate(0 0)"/></g><g transform="translate(0.811)"><path class="b" d="M-73.068,1701.353a2.432,2.432,0,0,1-2.432-2.432v-12.988a2.432,2.432,0,0,1,2.432-2.432,2.432,2.432,0,0,1,2.432,2.432v12.981a2.432,2.432,0,0,1-.71,1.724A2.432,2.432,0,0,1-73.068,1701.353Z" transform="translate(75.5 -1683.5)"/></g></g></svg>