<svg xmlns="http://www.w3.org/2000/svg" width="60" height="60" viewBox="0 0 60 60"><defs><style>.a{fill:none;}.b{fill:#0072d8;}</style></defs><rect class="a" width="60" height="60"/><path class="b" d="M235.547,271.224a14.2,14.2,0,0,0-1.2-4.123,1.5,1.5,0,0,0-2.421-.428l-8.066,8.065a.307.307,0,0,1-.434,0l-3.51-3.51a.307.307,0,0,1,0-.434l8.1-8.1a1.5,1.5,0,0,0-.411-2.412,14.243,14.243,0,0,0-19.432,18.012l-.747.748-5.535-5.535-.823-7.98a1.5,1.5,0,0,0-.711-1.126c-1.492-.91-4.02-2.473-4.454-2.794a4.373,4.373,0,0,0-2.19-.774,3.387,3.387,0,0,0-2.7.92l-3,3a3.832,3.832,0,0,0-.176,4.851c.441.641,2.19,3.467,2.828,4.5a1.5,1.5,0,0,0,1.124.706l7.98.823,5.535,5.535-13.879,13.88a3.307,3.307,0,0,0,0,4.677l3.51,3.51a3.311,3.311,0,0,0,4.677,0l10.948-10.948a3.632,3.632,0,0,0,.39.463l10.967,10.966a3.58,3.58,0,0,0,5.063,0l3-3h0a3.581,3.581,0,0,0,0-5.063l-8.3-8.3a14.228,14.228,0,0,0,13.87-16.118Zm-42.715.668c-.69-1.114-2.085-3.364-2.52-4-.243-.354-.332-.874-.176-1.031l3-3a.593.593,0,0,1,.358-.049,1.423,1.423,0,0,1,.63.2c.542.4,2.834,1.815,4.04,2.554l.612,5.937Zm35.195,26.285a.577.577,0,0,1-.17.41h0l-3,3a.58.58,0,0,1-.82,0l-10.965-10.966a.581.581,0,0,1,0-.821l3-3a.581.581,0,0,1,.82,0l10.965,10.966a.578.578,0,0,1,.17.41Zm4.488-23.193a11.24,11.24,0,0,1-15.821,8.315,1.5,1.5,0,0,0-1.694.3l-17.509,17.507a.307.307,0,0,1-.434,0l-3.51-3.51a.307.307,0,0,1,0-.434l17.469-17.472a1.5,1.5,0,0,0,.291-1.71,11.244,11.244,0,0,1,12.93-15.752l-6.444,6.444a3.311,3.311,0,0,0,0,4.677l3.51,3.512a3.307,3.307,0,0,0,4.677,0l6.382-6.382A11.241,11.241,0,0,1,232.515,274.984Z" transform="translate(-181.447 -251.109)"/></svg>