<svg xmlns="http://www.w3.org/2000/svg" width="32" height="32" viewBox="0 0 32 32"><defs><style>.a{fill:none;}.b{fill:#fff;}</style></defs><rect class="a" width="32" height="32"/><g transform="translate(12.388 9.368)"><path class="b" d="M784.9,588.2H774.1a.8.8,0,0,1,0-1.6h10.8a.8.8,0,1,1,0,1.6Z" transform="translate(-773.3 -586.6)"/></g><g transform="translate(9.241 9.368)"><path class="b" d="M784.9,588.2H774.1a.8.8,0,0,1,0-1.6h10.8a.8.8,0,1,1,0,1.6Z" transform="translate(-773.3 -586.6)"/></g><g transform="translate(7.229 9.368)"><path class="b" d="M453.223,588.2H451.1a.8.8,0,1,1,0-1.6h2.124a.8.8,0,0,1,0,1.6Z" transform="translate(-450.3 -586.6)"/></g><g transform="translate(12.388 15.102)"><path class="b" d="M784.9,947.2H774.1a.8.8,0,0,1,0-1.6h10.8a.8.8,0,1,1,0,1.6Z" transform="translate(-773.3 -945.6)"/></g><g transform="translate(9.241 15.102)"><path class="b" d="M784.9,947.2H774.1a.8.8,0,0,1,0-1.6h10.8a.8.8,0,1,1,0,1.6Z" transform="translate(-773.3 -945.6)"/></g><g transform="translate(7.229 15.102)"><path class="b" d="M453.223,947.2H451.1a.8.8,0,1,1,0-1.6h2.124a.8.8,0,1,1,0,1.6Z" transform="translate(-450.3 -945.6)"/></g><g transform="translate(12.388 20.836)"><path class="b" d="M784.9,1306.2H774.1a.8.8,0,0,1,0-1.6h10.8a.8.8,0,1,1,0,1.6Z" transform="translate(-773.3 -1304.6)"/></g><g transform="translate(9.241 20.836)"><path class="b" d="M784.9,1306.2H774.1a.8.8,0,0,1,0-1.6h10.8a.8.8,0,1,1,0,1.6Z" transform="translate(-773.3 -1304.6)"/></g><g transform="translate(7.229 20.836)"><path class="b" d="M453.223,1306.2H451.1a.8.8,0,1,1,0-1.6h2.124a.8.8,0,0,1,0,1.6Z" transform="translate(-450.3 -1304.6)"/></g></svg>