<svg xmlns="http://www.w3.org/2000/svg" width="16" height="16" viewBox="0 0 16 16"><defs><style>.a{fill:none;}.b{fill:#919191;}</style></defs><rect class="a" width="16" height="16"/><g transform="translate(1.641 1.611)"><path class="b" d="M208.29,202.4a4.365,4.365,0,0,1,1.709.345,4.4,4.4,0,0,1,1.4.941,4.494,4.494,0,0,1,.537.65,4.42,4.42,0,0,1,.4.745,4.41,4.41,0,0,1,0,3.418A4.406,4.406,0,0,1,210,210.836a4.409,4.409,0,0,1-3.418,0,4.406,4.406,0,0,1-2.337-2.337,4.409,4.409,0,0,1,0-3.418,4.4,4.4,0,0,1,.941-1.4,4.5,4.5,0,0,1,.65-.537,4.422,4.422,0,0,1,.745-.4,4.368,4.368,0,0,1,1.709-.345m0-.8a5.19,5.19,0,1,0,5.19,5.19,5.191,5.191,0,0,0-5.19-5.19Z" transform="translate(-203.1 -201.6)"/><g transform="translate(9.071 9.087)"><path class="b" d="M1340.576,1341.576a.4.4,0,0,1-.283-.117l-2.9-2.9a.4.4,0,0,1,.565-.565l2.9,2.9a.4.4,0,0,1-.282.682Z" transform="translate(-1337.275 -1337.875)"/></g><g transform="translate(2.013 4.791)"><path class="b" d="M457.977,804.277A3.174,3.174,0,0,1,454.8,801.1a.4.4,0,1,1,.8,0,2.38,2.38,0,0,0,2.378,2.378.4.4,0,1,1,0,.8Z" transform="translate(-454.8 -800.7)"/></g></g></svg>