<svg xmlns="http://www.w3.org/2000/svg" width="60" height="60" viewBox="0 0 60 60"><defs><style>.a{fill:none;}.b{fill:#0072d8;}</style></defs><rect class="a" width="60" height="60"/><g transform="translate(23.228 17.565)"><path class="b" d="M795.043,589.595H774.8a1.5,1.5,0,1,1,0-2.995h20.245a1.5,1.5,0,0,1,0,2.995Z" transform="translate(-773.3 -586.6)"/></g><g transform="translate(17.326 17.565)"><path class="b" d="M795.043,589.595H774.8a1.5,1.5,0,1,1,0-2.995h20.245a1.5,1.5,0,0,1,0,2.995Z" transform="translate(-773.3 -586.6)"/></g><g transform="translate(13.555 17.565)"><path class="b" d="M455.781,589.595H451.8a1.5,1.5,0,1,1,0-2.995h3.983a1.5,1.5,0,0,1,0,2.995Z" transform="translate(-450.3 -586.6)"/></g><g transform="translate(23.228 28.316)"><path class="b" d="M795.043,948.595H774.8a1.5,1.5,0,1,1,0-2.995h20.245a1.5,1.5,0,1,1,0,2.995Z" transform="translate(-773.3 -945.6)"/></g><g transform="translate(17.326 28.316)"><path class="b" d="M795.043,948.595H774.8a1.5,1.5,0,1,1,0-2.995h20.245a1.5,1.5,0,1,1,0,2.995Z" transform="translate(-773.3 -945.6)"/></g><g transform="translate(13.555 28.316)"><path class="b" d="M455.781,948.595H451.8a1.5,1.5,0,1,1,0-2.995h3.983a1.5,1.5,0,0,1,0,2.995Z" transform="translate(-450.3 -945.6)"/></g><g transform="translate(23.228 39.068)"><path class="b" d="M795.043,1307.595H774.8a1.5,1.5,0,1,1,0-2.995h20.245a1.5,1.5,0,1,1,0,2.995Z" transform="translate(-773.3 -1304.6)"/></g><g transform="translate(17.326 39.068)"><path class="b" d="M795.043,1307.595H774.8a1.5,1.5,0,1,1,0-2.995h20.245a1.5,1.5,0,1,1,0,2.995Z" transform="translate(-773.3 -1304.6)"/></g><g transform="translate(13.555 39.068)"><path class="b" d="M455.781,1307.595H451.8a1.5,1.5,0,1,1,0-2.995h3.983a1.5,1.5,0,1,1,0,2.995Z" transform="translate(-450.3 -1304.6)"/></g></svg>