<svg xmlns="http://www.w3.org/2000/svg" width="60" height="60" viewBox="0 0 60 60"><defs><style>.a{fill:none;}.b{fill:#0072d8;}</style></defs><rect class="a" width="60" height="60"/><g transform="translate(6.153 6.043)"><path class="b" d="M222.564,204.6a16.369,16.369,0,0,1,6.409,1.293,16.488,16.488,0,0,1,5.233,3.53,16.85,16.85,0,0,1,2.012,2.438,16.57,16.57,0,0,1,1.518,2.8,16.535,16.535,0,0,1,0,12.818,16.524,16.524,0,0,1-8.763,8.763,16.535,16.535,0,0,1-12.818,0,16.524,16.524,0,0,1-8.763-8.763,16.535,16.535,0,0,1,0-12.818,16.488,16.488,0,0,1,3.53-5.233,16.853,16.853,0,0,1,2.438-2.012,16.572,16.572,0,0,1,2.8-1.518,16.379,16.379,0,0,1,6.409-1.293m0-3a19.464,19.464,0,1,0,19.464,19.464A19.465,19.465,0,0,0,222.564,201.6Z" transform="translate(-203.1 -201.6)"/><g transform="translate(34.015 34.078)"><path class="b" d="M1349.656,1351.752a1.506,1.506,0,0,1-1.062-.438l-10.88-10.88a1.5,1.5,0,0,1,2.12-2.12l10.881,10.881a1.5,1.5,0,0,1-1.059,2.558Z" transform="translate(-1337.275 -1337.875)"/></g><g transform="translate(7.549 17.967)"><path class="b" d="M466.715,814.115A11.9,11.9,0,0,1,454.8,802.2a1.5,1.5,0,1,1,3,0,8.926,8.926,0,0,0,8.916,8.916,1.5,1.5,0,1,1,0,3Z" transform="translate(-454.8 -800.7)"/></g></g></svg>