<svg xmlns="http://www.w3.org/2000/svg" width="24" height="24" viewBox="0 0 24 24"><defs><style>.a{fill:none;}.b{fill:#fff;}</style></defs><rect class="a" width="24" height="24"/><path class="b" d="M218.122,234.223a.6.6,0,0,1-.424-.176l-6.408-6.408a5.866,5.866,0,1,1,2-9.6h0a5.824,5.824,0,0,1,1.636,3.169,5.884,5.884,0,0,1-.3,3.06l1.069,1.069.827-.828a.6.6,0,0,1,.848,0l1.74,1.74a.6.6,0,0,1,0,.848l-.827.828.6.6.828-.828a.6.6,0,0,1,.848,0l1.741,1.74a.6.6,0,0,1,0,.848l-1.208,1.209a.609.609,0,0,1-.041.046l-2.508,2.507A.6.6,0,0,1,218.122,234.223Zm-6.7-7.9a.6.6,0,0,1,.424.176l6.272,6.272,2.04-2.04a.609.609,0,0,1,.041-.046l.827-.828-.892-.892-.828.827a.6.6,0,0,1-.848,0l-1.451-1.451a.6.6,0,0,1,0-.848l.828-.828-.892-.892-.828.828a.6.6,0,0,1-.848,0l-1.778-1.778a.6.6,0,0,1-.12-.677,4.665,4.665,0,0,0-.932-5.266h0a4.663,4.663,0,1,0-1.276,7.5A.6.6,0,0,1,211.425,226.327Z" transform="translate(-200.836 -213.721)"/><path class="b" d="M494.724,509.813a2.4,2.4,0,1,1,1.7-4.1h0a2.4,2.4,0,0,1-1.7,4.1Zm0-3.608a1.2,1.2,0,1,0,.852.353h0a1.2,1.2,0,0,0-.852-.353Z" transform="translate(-486.415 -498.949)"/></svg>