<svg xmlns="http://www.w3.org/2000/svg" width="24" height="24" viewBox="0 0 24 24"><defs><style>.a{fill:none;}.b{fill:#fff;}</style></defs><rect class="a" width="24" height="24"/><rect class="a" width="24" height="24"/><path class="b" d="M200.4,1293h-6.359a1.039,1.039,0,0,0-1.038,1.038v4.049a1.039,1.039,0,0,0,1.038,1.038H200.4a1.039,1.039,0,0,0,1.038-1.038v-4.049A1.039,1.039,0,0,0,200.4,1293Zm-.147,4.94h-6.065v-3.755h6.065Z" transform="translate(-190.714 -1277.682)"/><path class="b" d="M200.4,190h-6.359A1.039,1.039,0,0,0,193,191.038v8.717a1.039,1.039,0,0,0,1.038,1.038H200.4a1.039,1.039,0,0,0,1.038-1.038v-8.717A1.039,1.039,0,0,0,200.4,190Zm-.147,9.608h-6.065v-8.423h6.065Z" transform="translate(-190.714 -187.749)"/><path class="b" d="M1101.4,190h-6.359a1.039,1.039,0,0,0-1.038,1.038v4.049a1.039,1.039,0,0,0,1.038,1.038h6.359a1.039,1.039,0,0,0,1.038-1.038v-4.049A1.039,1.039,0,0,0,1101.4,190Zm-.147,4.94h-6.065v-3.755h6.065Z" transform="translate(-1081.04 -187.749)"/><path class="b" d="M1101.4,899h-6.359a1.039,1.039,0,0,0-1.038,1.038v8.716a1.039,1.039,0,0,0,1.038,1.038h6.359a1.039,1.039,0,0,0,1.038-1.038v-8.716A1.039,1.039,0,0,0,1101.4,899Zm-.147,9.608h-6.065v-8.423h6.065Z" transform="translate(-1081.04 -888.35)"/></svg>