<svg xmlns="http://www.w3.org/2000/svg" width="60" height="60" viewBox="0 0 60 60"><defs><style>.a{fill:none;}.b{fill:#0072d8;}</style></defs><rect class="a" width="60" height="60"/><path class="b" d="M240.417,261.11a1.5,1.5,0,0,1-1.061-.439l-16.029-16.029a14.674,14.674,0,1,1,5-24.023h0a14.568,14.568,0,0,1,4.091,7.927,14.718,14.718,0,0,1-.75,7.655l2.675,2.675,2.07-2.07a1.5,1.5,0,0,1,2.121,0l4.354,4.353a1.5,1.5,0,0,1,0,2.121l-2.07,2.07,1.508,1.508,2.07-2.07a1.5,1.5,0,0,1,2.121,0l4.355,4.352a1.5,1.5,0,0,1,0,2.122l-3.023,3.024a1.523,1.523,0,0,1-.1.114l-6.273,6.272A1.5,1.5,0,0,1,240.417,261.11Zm-16.751-19.751a1.5,1.5,0,0,1,1.061.439l15.69,15.69,5.1-5.1q.049-.06.1-.114l2.07-2.07-2.232-2.232-2.07,2.07a1.5,1.5,0,0,1-2.121,0l-3.63-3.63a1.5,1.5,0,0,1,0-2.121l2.07-2.07-2.232-2.232-2.07,2.07a1.5,1.5,0,0,1-2.122,0l-4.448-4.447a1.5,1.5,0,0,1-.3-1.694,11.67,11.67,0,0,0-2.331-13.174h0a11.665,11.665,0,1,0-3.192,18.766A1.5,1.5,0,0,1,223.665,241.359Z" transform="translate(-197.175 -209.826)"/><path class="b" d="M498.333,517.031a6.013,6.013,0,1,1,4.252-10.264h0a6.013,6.013,0,0,1-4.252,10.264Zm0-9.025a3.013,3.013,0,1,0,2.13.882h0a2.993,2.993,0,0,0-2.13-.883Z" transform="translate(-477.55 -489.855)"/></svg>