<svg xmlns="http://www.w3.org/2000/svg" width="60" height="60" viewBox="0 0 60 60"><defs><style>.a{fill:none;}.b{fill:#0072d8;}</style></defs><g transform="translate(-1171 -1610)"><g transform="translate(1171 1610)"><rect class="a" width="60" height="60"/></g><g transform="translate(1176.773 1616.096)"><path class="a" d="M1193.45,1646.005a7.512,7.512,0,0,0,7.35-6.017h-14.7A7.512,7.512,0,0,0,1193.45,1646.005Z" transform="translate(-1169.223 -1601.101)"/><path class="b" d="M1194.461,1646.005a7.512,7.512,0,0,1-7.35-6.017h-3.033a10.487,10.487,0,0,0,20.766,0h-3.033A7.512,7.512,0,0,1,1194.461,1646.005Z" transform="translate(-1170.234 -1601.101)"/><path class="b" d="M1221.127,1642.735l-5.8-5.822.03-6.351v-.006a16.492,16.492,0,1,0-32.983,0v.006l.03,6.351-5.8,5.822a5.984,5.984,0,0,0,4.232,10.216H1216.9a5.986,5.986,0,0,0,4.225-10.216Zm-4.236,7.206h-36.057a2.977,2.977,0,0,1-2.1-5.082l6.236-6.266a1.5,1.5,0,0,0,.439-1.065l-.03-6.975,0,0v-.234a13.485,13.485,0,1,1,26.97.234l-.03,6.972a1.508,1.508,0,0,0,.438,1.065l6.249,6.266a2.977,2.977,0,0,1-2.106,5.082Z" transform="translate(-1174.849 -1614.064)"/></g></g></svg>