<svg xmlns="http://www.w3.org/2000/svg" width="16" height="16" viewBox="0 0 16 16"><defs><style>.a{fill:none;}.b{fill:#ff3700;}</style></defs><g transform="translate(0)"><rect class="a" width="16" height="16"/></g><g transform="translate(2.255 2.836)"><path class="b" d="M296.316,357.9l-.04,0a.327.327,0,0,1-.04,0H285.7a.4.4,0,0,1-.4-.4,2.4,2.4,0,0,1,2.407-2.4h6.6a2.4,2.4,0,0,1,2.407,2.4A.4.4,0,0,1,296.316,357.9Zm-10.162-.8h9.71a1.607,1.607,0,0,0-1.554-1.2h-6.6A1.6,1.6,0,0,0,286.154,357.1Z" transform="translate(-285.3 -355.1)"/><g transform="translate(1.228 1.989)"><path class="b" d="M446.724,604.9H438.7a.4.4,0,1,1,0-.8h8.023a.4.4,0,1,1,0,.8Z" transform="translate(-438.3 -604.1)"/></g><g transform="translate(0.698 2.028)"><path class="b" d="M380.369,618.544h-6.256a.907.907,0,0,1-.907-.879l-.921-8.222a.4.4,0,0,1,.1-.311.4.4,0,0,1,.3-.133h9.243a.4.4,0,0,1,.3.135.4.4,0,0,1,.1.315l-1.049,8.219A.906.906,0,0,1,380.369,618.544Zm-7.237-8.745.873,7.8a.386.386,0,0,1,0,.044.106.106,0,0,0,.106.105h6.255a.106.106,0,0,0,.106-.105.349.349,0,0,1,0-.05l.994-7.791Z" transform="translate(-372.283 -609)"/></g></g><g transform="translate(5.127 1.636)"><path class="b" d="M648.218,205.7v.367H644.1V205.7h4.116m.074-.8H644.03a.728.728,0,0,0-.729.726v.513a.728.728,0,0,0,.729.726h4.263a.728.728,0,0,0,.729-.726v-.514a.728.728,0,0,0-.729-.725Z" transform="translate(-643.3 -204.9)"/></g><g transform="translate(7.671 6.356)"><path class="b" d="M960.7,801.93a.4.4,0,0,1-.4-.4V796.3a.4.4,0,0,1,.8,0v5.231A.4.4,0,0,1,960.7,801.93Z" transform="translate(-960.3 -795.9)"/></g><g transform="translate(9.588 6.356)"><path class="b" d="M1199.7,801.953l-.045,0a.4.4,0,0,1-.355-.441l.586-5.255a.4.4,0,0,1,.8.088l-.586,5.255A.4.4,0,0,1,1199.7,801.953Z" transform="translate(-1199.299 -795.9)"/></g><g transform="translate(5.256 6.356)"><path class="b" d="M660.385,801.952a.4.4,0,0,1-.4-.355l-.586-5.255a.4.4,0,0,1,.8-.088l.586,5.255a.4.4,0,0,1-.355.441Z" transform="translate(-659.399 -795.898)"/></g></svg>