<svg xmlns="http://www.w3.org/2000/svg" width="24" height="22" viewBox="0 0 24 22"><defs><style>.a{fill:#fdb913;}.b{fill:#fff;}</style></defs><g transform="translate(0 0)"><path class="a" d="M336.263,93.191l-9.933,17.737a2.189,2.189,0,0,0,0,2.132,2.057,2.057,0,0,0,1.79,1.066h19.865a2.057,2.057,0,0,0,1.79-1.066,2.189,2.189,0,0,0,0-2.132l-9.933-17.737a2.037,2.037,0,0,0-3.581,0Z" transform="translate(-326.054 -92.125)"/><g transform="translate(11.013 7.608)"><g transform="translate(0 7.288)"><ellipse class="b" cx="1.051" cy="1.054" rx="1.051" ry="1.054" transform="translate(0 0)"/></g><g transform="translate(0.263 0)"><path class="b" d="M-74.712,1689.291a.789.789,0,0,1-.788-.79v-4.215a.789.789,0,0,1,.788-.79.789.789,0,0,1,.788.79v4.214A.789.789,0,0,1-74.712,1689.291Z" transform="translate(75.5 -1683.496)"/></g></g></g></svg>