<svg xmlns="http://www.w3.org/2000/svg" width="60" height="60" viewBox="0 0 60 60"><defs><style>.a{fill:none;}.b{fill:#0072d8;}</style></defs><rect class="a" width="60" height="60"/><g transform="translate(15.206 15.2)"><path class="b" d="M534.968,536.268a1.506,1.506,0,0,1-1.062-.438l-26.592-26.595a1.5,1.5,0,1,1,2.121-2.121l26.595,26.595a1.5,1.5,0,0,1-1.062,2.559Z" transform="translate(-506.875 -506.675)"/></g><g transform="translate(15.203 15.2)"><path class="b" d="M508.276,536.268a1.5,1.5,0,0,1-1.062-2.559l26.6-26.595a1.5,1.5,0,0,1,2.121,2.121l-26.6,26.595A1.506,1.506,0,0,1,508.276,536.268Z" transform="translate(-506.775 -506.675)"/></g></svg>