<svg xmlns="http://www.w3.org/2000/svg" width="24" height="24" viewBox="0 0 24 24"><defs><style>.a{fill:#00a995;}.b{fill:#fff;}</style></defs><circle class="a" cx="12" cy="12" r="12"/><path class="b" d="M12871.213,404.572l-3.389,3.4-1.1,1.1a.368.368,0,0,1-.523,0l-1.1-1.1-1.2-1.127a.372.372,0,0,1,0-.525l.432-.434a.369.369,0,0,1,.262-.109.373.373,0,0,1,.264.109l1.578,1.419a.158.158,0,0,0,.225,0l3.6-3.688a.372.372,0,0,1,.525,0l.432.434a.369.369,0,0,1,.109.263.376.376,0,0,1-.109.262Z" transform="translate(-12855.727 -394.32)"/></svg>