<svg xmlns="http://www.w3.org/2000/svg" width="20" height="20" viewBox="0 0 20 20"><defs><style>.a{fill:none;}.b{fill:#fff;}</style></defs><rect class="a" width="20" height="20"/><g transform="translate(2.051 2.014)"><path class="b" d="M209.588,202.6a5.457,5.457,0,0,1,2.136.431,5.495,5.495,0,0,1,1.744,1.177,5.616,5.616,0,0,1,.671.813,5.524,5.524,0,0,1,.506.932,5.512,5.512,0,0,1,0,4.273,5.508,5.508,0,0,1-2.921,2.921,5.512,5.512,0,0,1-4.273,0,5.508,5.508,0,0,1-2.921-2.921,5.511,5.511,0,0,1,0-4.273,5.5,5.5,0,0,1,1.177-1.744,5.625,5.625,0,0,1,.813-.671,5.529,5.529,0,0,1,.932-.506,5.46,5.46,0,0,1,2.136-.431m0-1a6.488,6.488,0,1,0,6.488,6.488,6.488,6.488,0,0,0-6.488-6.488Z" transform="translate(-203.1 -201.6)"/><g transform="translate(11.338 11.359)"><path class="b" d="M1341.4,1342.5a.5.5,0,0,1-.354-.146l-3.627-3.627a.5.5,0,0,1,.707-.707l3.627,3.627a.5.5,0,0,1-.353.853Z" transform="translate(-1337.275 -1337.875)"/></g><g transform="translate(2.516 5.989)"><path class="b" d="M458.772,805.172A3.967,3.967,0,0,1,454.8,801.2a.5.5,0,0,1,1,0,2.975,2.975,0,0,0,2.972,2.972.5.5,0,1,1,0,1Z" transform="translate(-454.8 -800.7)"/></g></g></svg>