<svg xmlns="http://www.w3.org/2000/svg" width="24" height="24" viewBox="0 0 24 24"><defs><style>.a{fill:none;}.b{fill:#0072d8;}</style></defs><rect class="a" width="24" height="24"/><path class="b" d="M190.787,662.982h-1.994V661.1a.6.6,0,0,0-1.2,0v1.878h-4.1v-.994a2.53,2.53,0,1,0-1.2,0v.991h-4.786v-2.854a.6.6,0,0,0-1.2,0v2.854h-1.886A1.43,1.43,0,0,0,173,664.41v4.933a1.429,1.429,0,0,0,1.428,1.428h16.359a1.429,1.429,0,0,0,1.428-1.428V664.41A1.43,1.43,0,0,0,190.787,662.982Zm-9.232-3.452a1.334,1.334,0,1,1,1.334,1.334A1.334,1.334,0,0,1,181.555,659.531Zm9.464,9.813a.232.232,0,0,1-.231.231H174.428a.232.232,0,0,1-.231-.231V664.41a.232.232,0,0,1,.231-.231h1.886V666.6a.6.6,0,1,0,1.2,0v-2.417h4.8a.6.6,0,0,0,1.177,0H187.6V666.6a.6.6,0,1,0,1.2,0v-2.417h1.994a.232.232,0,0,1,.231.231Z" transform="translate(-170.93 -649.139)"/><path class="b" d="M289.938,447.991v.8a.6.6,0,0,0,1.2,0v-.8a2.53,2.53,0,1,0-1.2,0Zm.592-3.794a1.334,1.334,0,1,1-1.334,1.334A1.334,1.334,0,0,1,290.53,444.2Z" transform="translate(-284.554 -437.7)"/><path class="b" d="M1232.938,207.991v5.453a.6.6,0,1,0,1.2,0v-5.456a2.53,2.53,0,1,0-1.2,0Zm.592-3.794a1.334,1.334,0,1,1-1.334,1.334A1.334,1.334,0,0,1,1233.531,204.2Z" transform="translate(-1216.272 -200.571)"/><path class="b" d="M950.6,1334.349a.6.6,0,0,0-.6.6v2.536a.6.6,0,0,0,1.2,0v-2.536A.6.6,0,0,0,950.6,1334.349Z" transform="translate(-938.634 -1320.016)"/></svg>