<svg xmlns="http://www.w3.org/2000/svg" width="60" height="60" viewBox="0 0 60 60"><defs><style>.a{fill:none;}.b{fill:#0072d8;}</style></defs><rect class="a" width="60" height="60"/><path class="b" d="M217.6,672h-5v-4.71a1.5,1.5,0,0,0-3,0V672H199.31v-2.493a6.345,6.345,0,1,0-3,.008V672h-12v-1.32a1.5,1.5,0,0,0-3,0V672h-4.73a3.584,3.584,0,0,0-3.58,3.58v12.37a3.584,3.584,0,0,0,3.58,3.58H217.6a3.584,3.584,0,0,0,3.58-3.58V675.58A3.584,3.584,0,0,0,217.6,672Zm-23.15-8.655a3.345,3.345,0,1,1,3.345,3.345A3.345,3.345,0,0,1,194.45,663.345Zm23.73,24.6a.581.581,0,0,1-.58.58H176.58a.581.581,0,0,1-.58-.58V675.58a.581.581,0,0,1,.58-.58h4.73v6.06a1.5,1.5,0,0,0,3,0V675h12.025a1.5,1.5,0,0,0,2.951,0H209.6v6.06a1.5,1.5,0,0,0,3,0V675h5a.581.581,0,0,1,.58.58Z" transform="translate(-167.81 -637.29)"/><path class="b" d="M292.86,455.514v2.006a1.5,1.5,0,0,0,3,0v-2.013a6.345,6.345,0,1,0-3,.008ZM294.345,446A3.345,3.345,0,1,1,291,449.345,3.345,3.345,0,0,1,294.345,446Z" transform="translate(-279.36 -429.71)"/><path class="b" d="M1235.86,215.514v5.246a1.5,1.5,0,0,0,3,0v-5.253a6.345,6.345,0,1,0-3,.008Zm1.485-9.514a3.345,3.345,0,1,1-3.345,3.345A3.345,3.345,0,0,1,1237.345,206Z" transform="translate(-1194.07 -196.91)"/><path class="b" d="M951.5,1336a1.5,1.5,0,0,0-1.5,1.5v2.22a1.5,1.5,0,0,0,3,0v-2.22A1.5,1.5,0,0,0,951.5,1336Z" transform="translate(-921.5 -1295.92)"/></svg>