<svg xmlns="http://www.w3.org/2000/svg" width="60" height="60" viewBox="0 0 60 60"><defs><style>.a{fill:none;}.b{fill:#0072d8;}</style></defs><rect class="a" width="59.731" height="59.97"/><g transform="translate(0.269 0.03)"><rect class="a" width="59.731" height="59.97"/></g><g transform="translate(22.275 48.21)"><path class="b" d="M22.647,49.159h0Z" transform="translate(-22.647 -48.822)"/><path class="b" d="M23.581,48.818l-.925.336A1.483,1.483,0,0,0,23.581,48.818Z" transform="translate(-22.647 -48.818)"/></g><g transform="translate(6.271 6.971)"><path class="b" d="M51.221,9.3a7.607,7.607,0,0,0-10.79,0l-3.35,3.384L47.849,23.5l3.373-3.362A7.683,7.683,0,0,0,51.221,9.3Z" transform="translate(-6.879 -7.059)"/><path class="b" d="M47.969,27.418h0Z" transform="translate(-7.058 -7.312)"/><g transform="translate(0 27.943)"><path class="b" d="M18.877,43.806a1.492,1.492,0,0,1-2.55-1.058,1.507,1.507,0,0,1,.438-1.063l.859-.862-3.062-3.074L10.346,50.233l12.223-4.446-2.834-2.844Z" transform="translate(-6.441 -35.384)"/><path class="b" d="M10.281,50.2,14.5,37.719h0l-2.356-2.365L6.456,52.193a1.524,1.524,0,0,0-.08.483,1.5,1.5,0,0,0,1.494,1.5,1.466,1.466,0,0,0,.509-.092L24.833,48.1,22.5,45.758" transform="translate(-6.376 -35.354)"/><path class="b" d="M16.865,41.724a1.5,1.5,0,0,0,1.056,2.56,1.484,1.484,0,0,0,1.055-.439l.859-.862-2.112-2.12Z" transform="translate(-6.541 -35.423)"/></g></g><g transform="translate(13.211 3.976)"><path class="b" d="M32.23,13.014,13.466,31.968c-.014.014-.023.032-.035.045l2.25,2.26,4.1,4.121L38.648,19.458Z" transform="translate(-13.431 -4.138)"/><path class="b" d="M37.046,12.649,40.4,9.265A7.645,7.645,0,1,1,51.186,20.1L47.813,23.46l2.111,2.119,3.369-3.358A10.638,10.638,0,1,0,38.279,7.148l-3.346,3.38Z" transform="translate(-13.783 -4.026)"/><path class="b" d="M40.9,21.686,22.039,40.623l3.822,3.837L28.19,46.8l.4-.144a1.493,1.493,0,0,0,.543-.346L47.346,28.157Z" transform="translate(-13.572 -4.246)"/></g></svg>