<svg xmlns="http://www.w3.org/2000/svg" width="60" height="59.761" viewBox="0 0 60 59.761"><defs><style>.a{fill:none;}.b{fill:#0072d8;}</style></defs><g transform="translate(0 0)"><rect class="a" width="59.731" height="59.731"/><g transform="translate(0.269 0.03)"><rect class="a" width="59.731" height="59.731"/></g><g transform="translate(6.272 3.958)"><path class="b" d="M4624.493,5501.09a1.493,1.493,0,0,1-1.415-1.973l6.541-19.293a1.483,1.483,0,0,1,.355-.573l24.46-24.609,0,0a10.616,10.616,0,1,1,15.014,15.014l0,0-23.952,23.773a1.509,1.509,0,0,1-.543.344L4625,5501A1.493,1.493,0,0,1,4624.493,5501.09Zm7.843-19.979-5.433,16.024,16.721-6.058,23.716-23.539a7.63,7.63,0,0,0-10.791-10.79Zm12.107,11.259Z" transform="translate(-4623 -5451.529)"/></g><g transform="translate(32.822 11.11)"><path class="b" d="M5526.366,5706.859a1.489,1.489,0,0,1-1.056-.437l-12.872-12.872a1.493,1.493,0,0,1,2.112-2.112l12.872,12.872a1.493,1.493,0,0,1-1.056,2.549Z" transform="translate(-5512.001 -5691.001)"/></g><g transform="translate(11.259 35.839)"><path class="b" d="M4801.021,6531.514a1.488,1.488,0,0,1-1.056-.437l-9.527-9.527a1.493,1.493,0,0,1,2.112-2.112l9.527,9.527a1.493,1.493,0,0,1-1.056,2.549Z" transform="translate(-4790 -6519)"/></g><g transform="translate(16.157 17.83)"><path class="b" d="M4955.494,5941.774a1.493,1.493,0,0,1-1.056-2.549l22.788-22.788a1.493,1.493,0,0,1,2.112,2.112l-22.788,22.788A1.489,1.489,0,0,1,4955.494,5941.774Z" transform="translate(-4954 -5916)"/></g></g></svg>