<svg xmlns="http://www.w3.org/2000/svg" width="60" height="60" viewBox="0 0 60 60"><defs><style>.a{fill:none;}.b{fill:#0072d8;}</style></defs><g transform="translate(0)"><rect class="a" width="60" height="60"/></g><g transform="translate(8.456 10.635)"><path class="b" d="M326.609,365.582c-.051,0-.1,0-.15-.006a1.229,1.229,0,0,1-.151.006H286.8a1.5,1.5,0,0,1-1.5-1.5,9.008,9.008,0,0,1,9.026-8.985h24.761a9.008,9.008,0,0,1,9.026,8.985A1.5,1.5,0,0,1,326.609,365.582ZM288.5,362.587h36.414a6.025,6.025,0,0,0-5.828-4.492H294.326A6.019,6.019,0,0,0,288.5,362.587Z" transform="translate(-285.3 -355.1)"/><g transform="translate(4.603 7.457)"><path class="b" d="M469.891,607.095H439.8a1.5,1.5,0,1,1,0-2.995h30.086a1.5,1.5,0,1,1,0,2.995Z" transform="translate(-438.3 -604.1)"/></g><g transform="translate(2.617 7.604)"><path class="b" d="M402.608,644.792H379.149a3.4,3.4,0,0,1-3.4-3.294l-3.454-30.832a1.49,1.49,0,0,1,.373-1.165,1.509,1.509,0,0,1,1.122-.5h34.66a1.511,1.511,0,0,1,1.128.506,1.493,1.493,0,0,1,.364,1.18l-3.933,30.82A3.4,3.4,0,0,1,402.608,644.792ZM375.47,612l3.273,29.239a1.455,1.455,0,0,1,.009.165.4.4,0,0,0,.4.4H402.6a.4.4,0,0,0,.4-.4,1.309,1.309,0,0,1,.012-.189L406.741,612Z" transform="translate(-372.283 -609)"/></g></g><g transform="translate(19.227 6.136)"><path class="b" d="M661.743,207.895v1.378H646.309v-1.378h15.434m.277-2.995H646.035a2.728,2.728,0,0,0-2.735,2.722v1.923a2.729,2.729,0,0,0,2.735,2.722H662.02a2.729,2.729,0,0,0,2.735-2.722v-1.926a2.73,2.73,0,0,0-2.735-2.719Z" transform="translate(-643.3 -204.9)"/></g><g transform="translate(28.765 23.836)"><path class="b" d="M961.8,818.511a1.5,1.5,0,0,1-1.5-1.5V797.4a1.5,1.5,0,0,1,3.008,0v19.616A1.5,1.5,0,0,1,961.8,818.511Z" transform="translate(-960.3 -795.9)"/></g><g transform="translate(35.955 23.836)"><path class="b" d="M1200.808,818.6a1.658,1.658,0,0,1-.169-.009,1.5,1.5,0,0,1-1.33-1.653l2.2-19.706a1.5,1.5,0,0,1,2.991.329l-2.2,19.706A1.5,1.5,0,0,1,1200.808,818.6Z" transform="translate(-1199.299 -795.9)"/></g><g transform="translate(19.712 23.836)"><path class="b" d="M663.1,818.6a1.5,1.5,0,0,1-1.492-1.333l-2.2-19.706a1.5,1.5,0,0,1,2.991-.329l2.2,19.706a1.5,1.5,0,0,1-1.33,1.653A1.624,1.624,0,0,1,663.1,818.6Z" transform="translate(-659.399 -795.898)"/></g></svg>