<svg xmlns="http://www.w3.org/2000/svg" width="60" height="60" viewBox="0 0 60 60"><defs><style>.a{fill:none;}.b{fill:#0072d8;}</style></defs><rect class="a" width="60" height="60"/><path class="b" d="M52,12.358a1.5,1.5,0,0,0-.435-1.08L46,5.713a1.5,1.5,0,0,0-2.1,0L22.945,25.858l-4.98-4.965a1.5,1.5,0,0,0-2.115,0L10,26.743a1.5,1.5,0,0,0,0,2.115l11.52,11.52a1.5,1.5,0,0,0,2.13,0h0a1.905,1.905,0,0,0,.465-.3L40,24.643V40.858a4.5,4.5,0,0,1-4.5,4.5h-24a4.5,4.5,0,0,1-4.5-4.5v-24a4.5,4.5,0,0,1,4.5-4.5h18a1.5,1.5,0,1,0,0-3h-18a7.5,7.5,0,0,0-7.5,7.5v24a7.5,7.5,0,0,0,7.5,7.5h24a7.5,7.5,0,0,0,7.5-7.5V21.733l8.55-8.3A1.5,1.5,0,0,0,52,12.358ZM22.675,37.288,13.18,27.793l3.735-3.72,4.95,4.95a1.5,1.5,0,0,0,2.1,0l21-20.16,3.4,3.495Z" transform="translate(2 2.642)"/></svg>