<svg xmlns="http://www.w3.org/2000/svg" xmlns:xlink="http://www.w3.org/1999/xlink" width="216" height="216" viewBox="0 0 216 216"><defs><style>.a{fill:none;}.b{clip-path:url(#a);}.c{fill:#f6f6f6;}.c,.d{stroke:#c2c2c1;stroke-linecap:round;stroke-linejoin:round;stroke-width:3px;}.d{fill:#fff;}</style><clipPath id="a"><rect class="a" width="216" height="216" transform="translate(-36 136)"/></clipPath></defs><g transform="translate(36 -136)"><g class="b"><path class="c" d="M18,232l54-24,54,24v24L72,274,18,256Z"/><path class="c" d="M72,310,18,286V232l54,24Z"/><path class="c" d="M72,310l54-24V232L72,256Z"/><path class="d" d="M72,256l12,18,54-24-12-18Z"/><path class="d" d="M72,256,60,274,6,250l12-18Z"/><line class="d" y1="12" x2="12" transform="translate(90 184)"/><line class="d" x1="12" y1="12" transform="translate(42 184)"/><line class="d" y1="15" transform="translate(72 172)"/></g></g></svg>