<svg xmlns="http://www.w3.org/2000/svg" width="349.38" height="121.317" viewBox="0 0 349.38 121.317"><defs><style>.a{fill:#fcb715;}.b{fill:#004ea8;}</style></defs><g transform="translate(214.56)"><path class="a" d="M224.342,20.39c-37.453,0-67.4,23.27-67.4,60.658,0,37.372,29.949,60.658,67.4,60.658,37.469,0,67.418-23.287,67.418-60.658C291.76,43.66,261.81,20.39,224.342,20.39Zm0,106.843c-27.006,0-38.374-21.766-38.374-46.185,0-24.435,11.368-46.185,38.374-46.185,27.022,0,38.391,21.75,38.391,46.185C262.732,105.467,251.348,127.233,224.342,127.233Z" transform="translate(-156.94 -20.39)"/></g><path class="b" d="M182.079,22.52H136.411V91.878c-4.269-9.557-13.729-15.4-24.645-17.239,8.506-4.2,15.152-11.368,15.152-23.836,0-17.093-11.336-28.267-38.132-28.267l-.032-.016H23.746V136.851H94.69c21.087,0,36.11-5.838,41.722-19.567v19.567h45.651c31.809,0,53.414-9.46,63.876-27.3a59.254,59.254,0,0,1-7.633-29.836,59.062,59.062,0,0,1,7.665-29.868C235.509,31.98,213.9,22.52,182.079,22.52Zm-131,15.152H78.033c13.826,0,20.473,6.5,20.473,16.543,0,10.026-6.646,16.527-20.473,16.527H51.076V37.672ZM88.27,121.7H51.092V85.9H88.27c14.975,0,22.171,7.018,22.171,17.9C110.44,114.664,103.244,121.7,88.27,121.7Zm90.608,0h-15.12V37.672h15.12c32.342,0,45.377,17.9,45.377,42.013S211.22,121.7,178.877,121.7Z" transform="translate(-23.746 -19.075)"/></svg>