<svg xmlns="http://www.w3.org/2000/svg" width="60" height="60" viewBox="0 0 60 60"><defs><style>.a{fill:none;}.b{fill:#0072d8;}</style></defs><rect class="a" width="60" height="60"/><g transform="translate(9 6.222)"><path class="b" d="M22.376,43.779a3.66,3.66,0,0,0,3.129,2.163,3.658,3.658,0,0,0,3.13-2.163,9.257,9.257,0,0,0,0-8.092,3.665,3.665,0,0,0-3.13-2.163,3.667,3.667,0,0,0-3.128,2.163,9.23,9.23,0,0,0,0,8.092Zm2.553-6.491a1.617,1.617,0,0,1,.576-.759,1.582,1.582,0,0,1,.577.753,6.458,6.458,0,0,1,0,4.9,1.592,1.592,0,0,1-.577.759,1.651,1.651,0,0,1-.575-.759,6.442,6.442,0,0,1,0-4.89Z" transform="translate(-9 -6.222)"/><path class="b" d="M50.15,12.627A10.487,10.487,0,0,0,30,16.71v9.5l-15,.008a6.41,6.41,0,0,0-6,6.39V46.835a6.407,6.407,0,0,0,6.4,6.4l20.228,0a6.409,6.409,0,0,0,6.4-6.4V32.61a6.408,6.408,0,0,0-6.4-6.4l-2.631,0v-9.5a7.488,7.488,0,1,1,14.977,0V20.9a1.5,1.5,0,0,0,3,0V16.71A10.47,10.47,0,0,0,50.15,12.627ZM39.027,32.609V46.836a3.4,3.4,0,0,1-3.4,3.4H15.4a3.409,3.409,0,0,1-3.4-3.4V32.609h0a3.408,3.408,0,0,1,3.4-3.4H35.627A3.4,3.4,0,0,1,39.027,32.609Z" transform="translate(-9 -6.222)"/></g></svg>