<svg xmlns="http://www.w3.org/2000/svg" width="60" height="60" viewBox="0 0 60 60"><defs><style>.a{fill:none;}.b{fill:#0072d8;stroke:rgba(0,0,0,0);stroke-miterlimit:10;}</style></defs><rect class="a" width="60" height="60"/><g transform="translate(9 6.222)"><path class="b" d="M13094.631,8999.792H13074.4a6.415,6.415,0,0,1-6.4-6.4v-14.223a6.41,6.41,0,0,1,6-6.393l15-.008v-9.5a10.537,10.537,0,0,1,6.4-9.67,10.452,10.452,0,0,1,11.5,2.254,10.281,10.281,0,0,1,2.246,3.33,10.443,10.443,0,0,1,.828,4.086v4.186a1.5,1.5,0,1,1-3,0v-4.186a7.489,7.489,0,1,0-14.979,0v9.5h2.635a6.417,6.417,0,0,1,6.4,6.4v14.223A6.417,6.417,0,0,1,13094.631,8999.792Zm-10.125-19.709a3.654,3.654,0,0,0-3.127,2.162,9.238,9.238,0,0,0,0,8.094,3.342,3.342,0,0,0,6.254,0,9.238,9.238,0,0,0,0-8.094,3.654,3.654,0,0,0-3.127-2.162Zm0,9.414v0a1.724,1.724,0,0,1-.578-.76,5.766,5.766,0,0,1-.48-2.443,5.832,5.832,0,0,1,.48-2.443,1.631,1.631,0,0,1,.578-.764,1.612,1.612,0,0,1,.578.756,6.473,6.473,0,0,1,0,4.895,1.592,1.592,0,0,1-.578.76Z" transform="translate(-13068 -8952.778)"/></g></svg>