<svg xmlns="http://www.w3.org/2000/svg" width="60" height="60" viewBox="0 0 60 60"><defs><style>.a{fill:none;}.b{fill:#0072d8;}</style></defs><rect class="a" width="60" height="60"/><path class="b" d="M13355.133-4545a4.1,4.1,0,0,1-3.578-2.179,4.56,4.56,0,0,1,0-4.358l19.864-36.284h0a4.06,4.06,0,0,1,1.7-1.708,3.989,3.989,0,0,1,1.88-.471,4.051,4.051,0,0,1,3.588,2.179l19.86,36.284a4.555,4.555,0,0,1,0,4.358,4.1,4.1,0,0,1-3.578,2.179Zm19.39-41.879a1.067,1.067,0,0,0-.443.447l-19.895,36.334a1.561,1.561,0,0,0,0,1.486,1.119,1.119,0,0,0,.972.612h39.707a1.1,1.1,0,0,0,.935-.6,1.563,1.563,0,0,0,.007-1.51l-19.856-36.274a1.078,1.078,0,0,0-.955-.622A1,1,0,0,0,13374.522-4586.879Zm-1.53,29.508a2.145,2.145,0,0,1,2.136-2.155,2.145,2.145,0,0,1,2.136,2.155,2.145,2.145,0,0,1-2.136,2.156A2.145,2.145,0,0,1,13372.992-4557.371Zm2.133-5.209a1.609,1.609,0,0,1-1.6-1.614v-8.625a1.609,1.609,0,0,1,1.6-1.614,1.608,1.608,0,0,1,1.6,1.614v8.622a1.609,1.609,0,0,1-1.6,1.617Z" transform="translate(-13345 4595.5)"/></svg>